<svg width="32" height="42" viewBox="0 0 32 42" fill="none" xmlns="http://www.w3.org/2000/svg">
<path d="M14.6591 9.90909H18.1818V30.7045C18.1818 32.5606 17.8409 34.1373 17.1591 35.4347C16.4773 36.732 15.5161 37.7169 14.2756 38.3892C13.035 39.0616 11.572 39.3977 9.88636 39.3977C8.29545 39.3977 6.87973 39.1089 5.6392 38.5312C4.39867 37.9441 3.4233 37.1108 2.71307 36.0312C2.00284 34.9517 1.64773 33.6686 1.64773 32.1818H5.11364C5.11364 33.0057 5.31723 33.7254 5.72443 34.3409C6.1411 34.947 6.70928 35.4205 7.42898 35.7614C8.14867 36.1023 8.9678 36.2727 9.88636 36.2727C10.8996 36.2727 11.7614 36.0597 12.4716 35.6335C13.1818 35.2074 13.7216 34.5824 14.0909 33.7585C14.4697 32.9252 14.6591 31.9072 14.6591 30.7045V9.90909Z" fill="white"/>
<path d="M17 10C17 29.6 17 36.8333 17 38H31" stroke="white" stroke-width="3"/>
<path d="M2 9C22.6462 9 30.5804 9 31 9" stroke="white" stroke-width="3"/>
<circle cx="25.5" cy="24.5" r="1.5" fill="white"/>
</svg>
